PathFileType	4	(X/Y/Z)	/Users/mathieubourgeois/Desktop/Analyse/Traitement/Sujet_02/Data/Transformed_Sujet_02_velo_100.trc
DataRate	CameraRate	NumFrames	NumMarkers	Units	OrigDataRate	OrigDataStartFrame	OrigNumFrames
120.000000	120.000000	4	36	mm	120.000000	1411	1882
Frame#	Time	RFHD			RANE			STRN			LANI			LKNE			T10			RHUM			RWRB			C7			LFWT			LTOE			RTOE			LWRA			LBWT			RBWT			RFWT			LKNI			RKNI			RKNE			LANE			RANI			LHEE			RHEE			LHUM			LRAD			RRAD			RWRA			LWRB			LFHD			LBHD			RBHD			RSHO			LSHO			CLAV			LCAR			RCAR			
		X1	Y1	Z1	X2	Y2	Z2	X3	Y3	Z3	X4	Y4	Z4	X5	Y5	Z5	X6	Y6	Z6	X7	Y7	Z7	X8	Y8	Z8	X9	Y9	Z9	X10	Y10	Z10	X11	Y11	Z11	X12	Y12	Z12	X13	Y13	Z13	X14	Y14	Z14	X15	Y15	Z15	X16	Y16	Z16	X17	Y17	Z17	X18	Y18	Z18	X19	Y19	Z19	X20	Y20	Z20	X21	Y21	Z21	X22	Y22	Z22	X23	Y23	Z23	X24	Y24	Z24	X25	Y25	Z25	X26	Y26	Z26	X27	Y27	Z27	X28	Y28	Z28	X29	Y29	Z29	X30	Y30	Z30	X31	Y31	Z31	X32	Y32	Z32	X33	Y33	Z33	X34	Y34	Z34	X35	Y35	Z35	X36	Y36	Z36	

1412	11.75833333333333	72.23995971679686	1453.338012695312	134.900421142578	-245.8286285400391	606.2289428710938	182.0529022216796	-200.6521911621094	1286.441162109375	32.99160766601553	-260.1066589355469	285.6481323242188	-77.9070205688477	-210.435791015625	714.5196533203125	-143.5946502685548	-357.1484069824219	1522.527587890625	31.18737220764147	-59.9426078796387	1179.988891601562	220.6910400390624	175.8399505615234	1027.212280273438	157.0772247314453	-135.5084838867188	1575.993896484375	44.17473602294911	-379.7502746582031	1210.054443359375	-107.1328735351564	-78.79686737060545	182.0837554931641	-142.9740905761719	-43.0138740539551	526.1590576171875	157.8211212158203	219.8493041992188	1049.612426757812	-161.3520812988282	-575.8331298828125	1212.365234375	-56.72502899169936	-584.4658813476562	1219.751708984375	64.76000976562486	-411.4766845703125	1238.772583007812	157.9515991210936	-175.0519866943359	679.813720703125	-44.043685913086	-0.4443773627281323	977.5450439453125	109.7665481567382	-61.06962585449222	1000.297912597656	220.4084472656249	-291.2506103515625	275.01806640625	-166.2877502441407	-219.8340148925781	620.155029296875	94.4336853027343	-360.788330078125	255.0017547607422	-124.0227813720704	-323.4656677246094	580.1160278320312	127.2798385620116	-19.36042785644529	1219.742919921875	-174.6197357177735	40.13579177856447	1259.02734375	-196.3249969482423	-9.791281700134311	1221.791381835938	270.9606323242187	203.9135589599609	1054.958862304688	217.2454528808593	179.8364868164062	1026.41259765625	-101.1832275390625	65.60865020751953	1421.572265625	-7.843798637390216	7.371728420257571	1562.754760742188	-24.35194396972666	14.58890628814696	1578.864868164062	134.8354949951171	-120.2628173828125	1518.583984375	194.3235626220702	-90.58937072753905	1524.85107421875	-89.56367492675793	-103.3316802978516	1432.765747070312	27.15212059020986	294.2799987792969	1035.03564453125	-78.54262542724611	293.9671020507812	1016.382141113281	140.8970489501953	
1413	11.76666666666667	72.74171447753905	1453.421630859375	135.2947845458984	-232.7495422363282	602.4239501953125	182.7086334228515	-200.5550384521484	1286.275512695312	33.16786575317373	-272.968994140625	288.863525390625	-77.29472351074223	-209.7533721923828	716.1548461914062	-142.547332763672	-356.7672119140625	1522.767578125	31.01720428466783	-60.38659286499026	1179.746826171875	221.246353149414	175.6160736083984	1027.211303710938	157.0406188964843	-135.1912384033203	1575.9677734375	44.41382980346668	-380.2027282714844	1210.487182617188	-107.4495849609376	-95.12772369384764	180.4221954345703	-143.2284088134766	-27.56246376037599	530.2952880859375	157.9710693359375	219.5920867919922	1049.58056640625	-161.4013214111328	-576.2525634765625	1212.618774414062	-56.98819351196303	-584.8099975585938	1220.307250976562	64.5087509155272	-411.6648254394531	1239.600463867188	157.5754241943358	-174.5685119628906	681.1624145507812	-43.08404922485358	0.8531667590141164	982.345947265625	108.121711730957	-60.1579399108887	1004.114807128906	219.289077758789	-304.1867980957031	280.0818176269531	-165.6012420654297	-210.6381988525391	618.3990478515625	95.40924072265618	-373.9873046875	262.0108032226562	-122.7321243286133	-309.2843017578125	574.0455322265625	129.1503753662109	-19.81446838378904	1219.615234375	-174.789535522461	39.68591308593752	1258.827880859375	-196.5877990722657	-10.13354969024662	1221.564086914062	271.5281372070312	203.6438903808593	1054.97314453125	217.2539520263672	179.7027893066406	1026.488159179688	-101.1412048339844	66.04606628417969	1421.787719726562	-7.356983184814532	7.756472587585452	1562.833251953125	-23.98319435119638	14.61278533935545	1578.974609375	135.2124481201171	-120.2016143798828	1518.52197265625	194.6389617919921	-90.45133209228514	1524.724731445312	-89.33005523681652	-103.067268371582	1432.691040039062	27.42169761657705	294.1648254394531	1035.15673828125	-78.54771423339845	293.77197265625	1016.478881835938	141.0068817138672	
1414	11.775	73.11061859130858	1453.54345703125	135.7254791259765	-220.065414428711	597.1841430664062	183.3971557617187	-200.4809875488281	1286.097045898438	33.25117111206045	-284.3638305664062	294.04345703125	-77.03489685058598	-207.8548583984375	718.6312255859375	-141.3774566650391	-356.4563903808594	1523.023193359375	30.80513763427721	-60.88167953491214	1179.465942382812	222.0159454345702	175.4010925292968	1027.22216796875	157.0181121826172	-134.8309783935547	1575.880004882812	44.45285797119129	-380.804443359375	1210.861083984375	-107.7505798339845	-110.4580764770508	180.0777740478516	-143.2893371582031	-12.84377861022951	532.3438110351562	158.766357421875	219.3547821044922	1049.543823242188	-161.4759674072266	-576.8131103515625	1212.747314453125	-57.17443084716811	-585.1983032226562	1220.779418945312	64.3040618896483	-411.8121948242188	1240.31982421875	157.2155151367186	-172.8772277832031	683.47265625	-41.96769332885749	1.583862662315356	984.8399658203125	106.5663452148437	-59.57868957519534	1005.964111328125	217.9145202636718	-316.2848815917969	286.71044921875	-164.8929748535157	-190.9532623291016	612.5885009765625	95.32298278808587	-386.4398498535156	270.6831970214844	-121.5228805541993	-295.8721313476562	566.283935546875	129.3146820068359	-20.207799911499	1219.419067382812	-174.9916076660157	39.24116516113283	1258.625732421875	-196.8993225097657	-10.47808647155765	1221.292358398438	272.1404418945312	203.3054809570312	1054.940063476562	217.3016204833984	179.572509765625	1026.547119140625	-101.1306381225586	66.52417755126953	1421.895629882812	-6.801934242248614	7.979994297027591	1562.905883789062	-23.69547080993662	14.59686470031737	1579.08837890625	135.4342498779296	-120.0700302124024	1518.389038085938	194.8957366943358	-90.32196807861327	1524.522705078125	-89.18552398681652	-102.8307342529297	1432.5732421875	27.49893760681142	294.0585021972656	1035.271728515625	-78.57281494140626	293.5847778320312	1016.564331054688	141.1627807617187	
1415	11.78333333333333	73.74975585937499	1453.62939453125	135.5365905761718	-207.7779541015625	590.2269897460938	184.1000518798828	-200.4803924560547	1285.828247070312	33.24710845947256	-295.26318359375	300.7184448242188	-76.49283599853521	-205.304946899414	722.1402587890625	-140.1374816894532	-356.1794738769531	1523.27978515625	30.60930824279772	-61.38149261474612	1179.126220703125	222.870147705078	174.4805908203125	1026.473876953125	157.0126037597656	-134.4992370605469	1575.710083007812	44.41192626953114	-381.4812927246094	1211.173950195312	-108.1829528808595	-125.621353149414	180.9637756347656	-143.2633819580078	1.519151687622051	532.3231201171875	159.0619659423828	219.1411590576172	1049.453247070312	-161.5470733642578	-577.4102172851562	1212.823486328125	-57.3948135375978	-585.5478515625	1221.276611328125	64.06184387207017	-411.90966796875	1240.89404296875	156.9449615478514	-170.2116394042969	686.517578125	-40.79758453369147	1.732080578804003	984.8839111328125	105.0846405029296	-59.30548095703128	1005.574157714844	215.4888763427734	-327.6164245605469	294.8175048828125	-164.145736694336	-181.0443725585938	607.2381591796875	95.74426269531243	-398.5167846679688	280.8198547363281	-121.0227890014649	-282.5228271484375	556.625732421875	130.7591400146484	-20.59807968139646	1219.184326171875	-175.1625518798829	38.76505661010744	1258.291870117188	-197.2359313964845	-10.85177230834964	1220.977661132812	272.8154602050781	202.9807434082031	1054.908935546875	217.3326416015625	179.4674987792969	1026.548583984375	-101.1289749145508	66.90460205078125	1422.096923828125	-6.422529220581134	8.156528472900394	1562.9296875	-23.51882553100596	14.49607944488524	1579.244873046875	135.5426940917968	-119.896224975586	1518.192626953125	195.0580291748046	-90.21336364746092	1524.256713867188	-89.15624237060558	-102.6505126953125	1432.369140625	27.46319580078115	294.1546020507812	1035.369873046875	-78.09694671630861	293.4204711914062	1016.661193847656	141.2934112548828	
